<svg xmlns="http://www.w3.org/2000/svg" fill="white" height="40" viewBox="0 -960 960 960" width="40"><path d="M735.334-420.16v-122.899H612.435v-74.203h122.899V-740.16h74.203v122.898h122.898v74.203H809.537v122.899h-74.203Zm-374.092-68.608q-73.048 0-121.065-48.018-48.018-48.018-48.018-121.066T240.177-778.9q48.017-48 121.065-48t121.331 48q48.283 48 48.283 121.048t-48.283 121.066q-48.283 48.018-121.331 48.018ZM25.492-136.071v-116.957q0-39.171 20.06-71.136 20.06-31.966 55.462-48.619Q173-405.681 235.006-420.225q62.005-14.543 126.124-14.543 65.203 0 127.087 14.449t133.117 47.348q35.402 16.861 55.795 48.432 20.394 31.571 20.394 71.415v117.053H25.493Z"/></svg>