<svg xmlns="http://www.w3.org/2000/svg" fill="white" height="40" viewBox="0 -960 960 960" width="40"><path d="M365.013-415.783h211.06v-72.319h-211.06v72.319Zm0-105.652h385.829v-72.319H365.013v72.319Zm0-105.652h385.829v-72.318H365.013v72.318Zm-68.622 418.842q-36.44 0-62.293-25.853t-25.853-62.293v-522.03q0-36.595 25.853-62.558 25.853-25.964 62.293-25.964h522.03q36.595 0 62.558 25.964 25.964 25.963 25.964 62.558v522.03q0 36.44-25.964 62.293-25.963 25.853-62.558 25.853h-522.03ZM141.579-53.057q-36.595 0-62.559-25.963-25.963-25.964-25.963-62.559v-610.176h88.522v610.176h610.176v88.522H141.579Z"/></svg>