<svg xmlns="http://www.w3.org/2000/svg" fill="white" height="40" viewBox="0 -960 960 960" width="40"><path d="M439.696-264.173H280q-89.845 0-152.836-62.978-62.99-62.978-62.99-152.72 0-89.741 62.99-153.037Q190.155-696.204 280-696.204h159.696v88.523H280.242q-53.584 0-90.754 37.053-37.169 37.053-37.169 90.471 0 53.418 37.169 90.628 37.17 37.21 90.754 37.21h159.454v88.146ZM312.594-442.899v-74.202h334.812v74.202H312.594Zm207.71 178.726v-88.146h159.454q53.584 0 90.754-37.053 37.169-37.053 37.169-90.471 0-53.418-37.169-90.628-37.17-37.21-90.754-37.21H520.304v-88.523H680q89.725 0 152.964 63.252 63.24 63.252 63.24 152.993 0 89.742-63.24 152.764Q769.725-264.173 680-264.173H520.304Z"/></svg>