<svg xmlns="http://www.w3.org/2000/svg" fill="white" height="40" viewBox="0 -960 960 960" width="40"><path d="m664.972-104.173-10.855-66.073q-13.826-4.246-27.863-11.942-14.036-7.696-24.384-17.42l-58.449 15.13-35.652-61.217 48.551-43.986q-2.566-8.594-2.283-22.413.283-13.819 2.283-22.036l-48.551-44.551 35.652-60.652 58.449 14.754q10.348-9.348 24.384-17.232 14.037-7.884 27.863-11.754l10.855-66.449h74.536l11.232 66.449q13.449 3.87 27.768 11.826 14.319 7.957 24.667 17.826l57.884-15.42 36.217 61.319-49.116 44.551q2.942 8.116 2.66 21.891-.283 13.775-2.66 21.891l49.116 43.986-36.217 61.217-57.884-15.13q-10.348 9.724-24.667 17.42-14.319 7.696-27.768 11.942l-11.232 66.073h-74.536ZM64.173-138.738v-116.957q0-41.305 21.761-72.841 21.761-31.536 53.761-46.913 65.001-30 130.82-45.993Q336.334-437.435 400-437.435h16.384q9.718 0 17.602.667-33.653 67.232-29.993 154.479 3.659 87.247 50.442 143.551H64.173Zm638.35-96.841q33.116 0 54.673-21.653 21.558-21.652 21.558-55.144 0-33.116-21.558-54.674-21.557-21.558-54.673-21.558t-54.957 21.558q-21.84 21.558-21.84 54.674 0 33.492 21.84 55.144 21.841 21.653 54.957 21.653ZM400-491.435q-72.971 0-121.066-48.095-48.094-48.094-48.094-121.065 0-72.972 48.094-120.972 48.095-48 121.066-48t121.254 48q48.283 48 48.283 120.972 0 72.971-48.283 121.065Q472.971-491.435 400-491.435Z"/></svg>