<svg xmlns="http://www.w3.org/2000/svg" fill="white" height="40" viewBox="0 -960 960 960" width="40"><path d="M26.927-104.927v-114.957q0-41.116 20.478-68.986 20.479-27.869 50.189-42.202 53-26 118.913-43.993 65.913-17.993 143.768-17.993t143.486 17.428q65.63 17.427 119.007 43.427 29.334 14.71 49.812 42.984 20.479 28.273 20.479 69.377v114.915H26.927Zm333.348-341.465q-72.783 0-121.065-48.473-48.283-48.474-48.283-117.295h-10q-10.283 0-17.309-7.102-7.025-7.102-7.025-17.511 0-10.155 7.025-17.199 7.026-7.044 17.309-7.044h10q0-44.869 24.152-81.594 24.153-36.725 64.269-56.493v39.204q0 7.593 4.8 12.238t12.432 4.645q7.289 0 12.355-4.603Q314-752.222 314-759.53v-52.254q8.533-1.956 21.421-3.645 12.888-1.688 25.466-1.688 12.2 0 24.773 1.688 12.572 1.689 21.546 3.623v52.27q0 7.311 5.122 11.916 5.121 4.604 12.788 4.604 7.754 0 12.493-4.645 4.739-4.645 4.739-12.021v-39.421q39.739 19.768 63.225 56.478 23.485 36.711 23.485 81.609h10q10.284 0 17.309 7.013 7.025 7.012 7.025 17.275 0 10.263-7.025 17.416-7.025 7.152-17.309 7.152h-10q0 69-48 117.384t-120.783 48.384Zm.169-88.522q36.194 0 58.331-22.84 22.138-22.839 22.138-58.175H279.449q0 35.218 22.167 58.116 22.167 22.899 58.828 22.899Zm312.093 151.638-3.334-29.334q-6.666-3.225-13.5-7.54-6.833-4.315-12.5-9.645l-26.666 12.62-21.334-33.041 24.667-19.145q-1.333-3.639-1.333-6.944v-13.971q0-3.334 1.333-7l-24.667-19.334 21.334-33.333 26.666 12.667q6.189-4.479 12.793-8.883 6.604-4.404 13.207-7.784l3.334-29.333h40l3.333 29.333q6.667 3.239 13.051 7.714 6.384 4.474 12.949 8.953l26.667-12.667 21.333 33.333-24.667 19.334q.957 3.666 1.145 7 .189 3.333.189 7 0 3.666-.189 7-.188 3.333-1.145 7l24.667 19.333-21.333 33.333-26.667-12.667q-5.667 5-12.5 9.167t-13.5 7.5l-3.333 29.334h-40Zm20-64.667q14.855 0 25.094-10.239t10.239-25.094q0-14.856-10.239-25.095-10.239-10.239-25.283-10.239-15.043 0-25.094 10.239-10.051 10.239-10.051 25.095 0 14.855 10.051 25.094t25.283 10.239Zm85.87-151.001-8.667-37.333q-9.667-3.666-19.167-9.833-9.5-6.167-16.166-13.5l-43.334 15.333-22.666-39.333 34.666-28.667q-2-5-3-10t-1-10.666q0-5.496 1-10.393t3-10.274l-34.666-28.667 22.666-39.333 43.334 15.333q6.666-6.956 16.166-13.645 9.5-6.688 19.167-9.688l8.667-37.333h43.999l8.667 37.333q9.667 3 19.167 9.688 9.5 6.689 16.167 13.645l43.333-15.333 22.666 39.333-34.666 28.667q2 5.377 3 10.274 1 4.897 1 10.393 0 5.666-1 10.666t-3 10l34.666 28.667-22.666 39.333-43.333-15.333q-6.667 7.333-16.167 13.5-9.5 6.167-19.167 9.833l-8.667 37.333h-43.999Zm22-78.666q23.666 0 39.5-15.833 15.833-15.834 15.833-39.5 0-23.667-15.833-39.501-15.834-15.833-39.5-15.833-23.667 0-39.501 15.833-15.833 15.834-15.833 39.501 0 23.666 15.833 39.5 15.834 15.833 39.501 15.833Z"/></svg>