<svg xmlns="http://www.w3.org/2000/svg" fill="white" height="40" viewBox="0 -960 960 960" width="40"><path d="M-7.537-232.463v-64.034q0-43.649 44.595-70.677 44.594-27.029 116.526-27.029 8.848 0 16.385.218 7.537.217 15.523 1.231-11.319 20.45-16.952 42.231-5.633 21.781-5.633 45.457v72.603H-7.537Zm240 0V-305q0-33.696 17.783-61.797 17.783-28.102 51.102-48.855 33.318-20.754 78.965-31.319 45.647-10.566 99.576-10.566 54.965 0 100.33 10.566 45.364 10.565 78.868 31.319 33.319 20.753 50.884 48.855 17.566 28.101 17.566 61.797v72.537H232.463Zm564.494 0v-72.698q0-24.405-5.348-46.092-5.347-21.688-15.956-41.451 7.985-1.064 15.552-1.281 7.566-.218 15.462-.218 72.693 0 116.781 26.738 44.089 26.737 44.089 71.132v63.87h-170.58ZM153.141-425.652q-32.025 0-54.844-22.94-22.819-22.94-22.819-55.153 0-32.689 22.862-55.342 22.862-22.652 54.967-22.652 32.577 0 55.417 22.637 22.841 22.638 22.841 55.52 0 31.916-22.714 54.923t-55.71 23.007Zm653.334 0q-32.026 0-54.844-22.94-22.819-22.94-22.819-55.153 0-32.689 22.862-55.342 22.862-22.652 54.966-22.652 32.578 0 55.418 22.637 22.841 22.638 22.841 55.52 0 31.916-22.714 54.923t-55.71 23.007Zm-326.29-61.319q-53.217 0-90.469-37.253-37.253-37.252-37.253-90.469 0-53.83 37.253-90.591 37.252-36.76 90.469-36.76 53.83 0 90.591 36.76 36.761 36.761 36.761 90.591 0 53.217-36.761 90.469-36.761 37.253-90.591 37.253Z"/></svg>